<svg width="63" height="63" viewBox="0 0 63 63" fill="none" xmlns="http://www.w3.org/2000/svg">
<g filter="url(#filter0_d)">
<circle cx="31.5" cy="31.5" r="26" stroke="#AF8C2B" stroke-width="3"/>
</g>
<circle cx="31.5003" cy="31.5" r="23.7083" stroke="#CFA942" stroke-width="3"/>
<circle cx="32.0977" cy="37.8727" r="9.66895" transform="rotate(90 32.0977 37.8727)" fill="#CFA942"/>
<path opacity="0.15" d="M36.4922 30.2604C32.288 27.8331 26.9121 29.2735 24.4849 33.4777C24.4849 33.4777 29.8156 29.9581 34.8441 33.115C39.8725 36.2719 39.7095 42.2677 39.7095 42.2677C42.1368 38.0635 40.6963 32.6876 36.4922 30.2604Z" fill="white"/>
<path d="M33.8552 15.4583L31.8774 19.4138L35.3934 27.105L40.2279 15.4583H33.8552Z" fill="#AF8C2B"/>
<path d="M30.3395 15.4583H23.7471L28.8013 27.105H35.3938L30.3395 15.4583Z" fill="#CFA942"/>
<defs>
<filter id="filter0_d" x="0" y="0" width="63" height="63" filterUnits="userSpaceOnUse" color-interpolation-filters="sRGB">
<feFlood flood-opacity="0" result="BackgroundImageFix"/>
<feColorMatrix in="SourceAlpha" type="matrix" values="0 0 0 0 0 0 0 0 0 0 0 0 0 0 0 0 0 0 127 0"/>
<feOffset/>
<feGaussianBlur stdDeviation="2"/>
<feColorMatrix type="matrix" values="0 0 0 0 0.811765 0 0 0 0 0.662745 0 0 0 0 0.258824 0 0 0 1 0"/>
<feBlend mode="normal" in2="BackgroundImageFix" result="effect1_dropShadow"/>
<feBlend mode="normal" in="SourceGraphic" in2="effect1_dropShadow" result="shape"/>
</filter>
</defs>
</svg>
