<svg width="18" height="18" viewBox="0 0 18 18" xmlns="http://www.w3.org/2000/svg">
    <path d="M7.96553 4.13455C8.06113 3.93116 8.16669 3.72929 8.28233 3.52973L8.30663 3.48807L8.32039 3.46475C8.52473 3.11957 8.75051 2.79677 8.99373 2.49793C9.93944 1.33594 11.1488 0.536155 12.3864 0.191292C12.3909 0.190058 12.3953 0.188831 12.3997 0.187609C13.5725 -0.136037 14.7698 -0.0510377 15.7915 0.521469L15.8199 0.537502C18.2006 1.89689 18.7105 5.41259 16.9575 8.39663C15.4086 11.0332 12.6107 12.3737 10.3328 11.7214L13.5 17.1098L11.9302 18L9.00071 13.0161L6.07285 17.9999L4.49997 17.1075L8.39365 10.4796C7.58922 9.54411 7.2023 8.24253 7.27211 6.84368C7.31637 5.95689 7.54418 5.03101 7.96553 4.13455ZM14.2093 1.84388V8.96819C14.6365 8.58963 15.0403 8.10684 15.3919 7.50833C16.8527 5.02167 16.1031 2.76752 14.8986 2.0841C14.6978 1.97016 14.4649 1.88881 14.2093 1.84388ZM13.3012 9.60655V1.83221C12.7189 1.91026 12.0888 2.1479 11.485 2.57494V10.0812C12.0452 10.0906 12.6768 9.94296 13.3012 9.60655ZM9.685 9.17727C9.81951 9.36133 9.97097 9.5188 10.1342 9.64572C10.209 9.70388 10.2862 9.75563 10.3654 9.80058C10.4085 9.82501 10.453 9.84794 10.499 9.86934C10.5208 9.87953 10.543 9.88938 10.5655 9.89887L10.5769 9.90363V3.39675C10.3266 3.68091 10.0894 4.00654 9.87218 4.37635L9.85851 4.39972L9.83819 4.43485C9.78398 4.52921 9.73295 4.62322 9.685 4.71681C8.74515 6.55099 8.98698 8.22214 9.685 9.17727Z"
    />
    <path d="M6.68021 2.70528C6.02456 2.19523 5.32817 1.91728 4.68967 1.83173V9.57826C5.13908 9.82046 5.59224 9.96462 6.01963 10.0226C6.09482 10.1997 6.17781 10.3733 6.26873 10.5431L5.54979 11.7668C3.83955 11.4413 2.13028 10.2297 1.04051 8.3757C-0.711419 5.39515 -0.198867 1.88285 2.18532 0.530775C3.84323 -0.409426 5.9696 -0.057483 7.70032 1.24639C7.34852 1.66063 7.03079 2.10623 6.75463 2.57632C6.72947 2.61915 6.70466 2.66214 6.68021 2.70528ZM2.60626 7.48777C2.95631 8.08332 3.35816 8.56386 3.78334 8.94085V1.84351C3.52902 1.88831 3.29723 1.96926 3.09744 2.08256C1.89746 2.76307 1.14922 5.00891 2.60626 7.48777Z"
    />
</svg>
