<svg width="500" height="450" viewBox="0 0 500 450" fill="none" xmlns="http://www.w3.org/2000/svg">
    <path fill-rule="evenodd" clip-rule="evenodd" d="M209.985 163.017L209.604 162.598C209.604 162.598 164.647 204.51 148.032 254.235C131.417 303.961 133.372 360.791 133.372 360.791C133.372 360.791 165.039 320.142 216.797 306.299C243.459 299.168 271.288 294.894 292.006 292.426C241.973 282.32 204.591 242.098 204.591 194.019C204.591 183.202 206.483 172.784 209.985 163.017Z" fill="url(#paint0_linear)"/>
    <ellipse cx="321.533" cy="190.503" rx="112.061" ry="100.854" fill="url(#paint1_radial)"/>
    <path d="M378.278 234.646C379.97 236.755 379.445 239.722 376.965 241.071C371.267 244.17 365.058 246.458 358.558 247.843C350.353 249.592 341.846 249.87 333.521 248.66C325.197 247.45 317.219 244.776 310.043 240.791C304.35 237.63 299.25 233.693 294.921 229.128C293.051 227.156 293.599 224.201 295.942 222.678C298.281 221.158 301.523 221.646 303.425 223.589C306.928 227.168 311.007 230.268 315.534 232.782C321.542 236.118 328.22 238.356 335.189 239.369C342.157 240.382 349.279 240.15 356.148 238.685C361.314 237.584 366.261 235.802 370.832 233.404C373.331 232.092 376.589 232.541 378.278 234.646Z" fill="#1188DD"/>
    <ellipse cx="375.732" cy="151.611" rx="19.2871" ry="17.5781" fill="#1188DD"/>
    <ellipse cx="318.604" cy="172.705" rx="19.2871" ry="17.5781" fill="#1188DD"/>
    <defs>
        <linearGradient id="paint0_linear" x1="231.446" y1="235.986" x2="145.334" y2="352.135" gradientUnits="userSpaceOnUse">
            <stop stop-color="white"/>
            <stop offset="1" stop-color="#1188DD" stop-opacity="0"/>
        </linearGradient>
        <radialGradient id="paint1_radial" cx="0" cy="0" r="1" gradientUnits="userSpaceOnUse" gradientTransform="translate(321.777 133.813) rotate(90.0888) scale(157.544 175.049)">
            <stop stop-color="white"/>
            <stop offset="1" stop-color="#E4EDF3"/>
        </radialGradient>
    </defs>
</svg>
