<?xml version="1.0" encoding="UTF-8" standalone="no"?>
<svg
   xmlns:dc="http://purl.org/dc/elements/1.1/"
   xmlns:cc="http://creativecommons.org/ns#"
   xmlns:rdf="http://www.w3.org/1999/02/22-rdf-syntax-ns#"
   xmlns:svg="http://www.w3.org/2000/svg"
   xmlns="http://www.w3.org/2000/svg"
   xmlns:sodipodi="http://sodipodi.sourceforge.net/DTD/sodipodi-0.dtd"
   xmlns:inkscape="http://www.inkscape.org/namespaces/inkscape"
   width="173.75"
   height="174.25"
   viewBox="0 0 173.75 174.25"
   version="1.1"
   id="svg24"
   sodipodi:docname="logo.svg"
   style="fill:none"
   inkscape:version="0.92.5 (2060ec1f9f, 2020-04-08)">
  <metadata
     id="metadata28">
    <rdf:RDF>
      <cc:Work
         rdf:about="">
        <dc:format>image/svg+xml</dc:format>
        <dc:type
           rdf:resource="http://purl.org/dc/dcmitype/StillImage" />
        <dc:title></dc:title>
      </cc:Work>
    </rdf:RDF>
  </metadata>
  <sodipodi:namedview
     pagecolor="#ffffff"
     bordercolor="#666666"
     borderopacity="1"
     objecttolerance="10"
     gridtolerance="10"
     guidetolerance="10"
     inkscape:pageopacity="0"
     inkscape:pageshadow="2"
     inkscape:window-width="3726"
     inkscape:window-height="2131"
     id="namedview26"
     showgrid="false"
     fit-margin-top="10"
     fit-margin-left="10"
     fit-margin-bottom="10"
     fit-margin-right="10"
     inkscape:zoom="5.2149125"
     inkscape:cx="56.75296"
     inkscape:cy="93.871841"
     inkscape:window-x="0"
     inkscape:window-y="0"
     inkscape:window-maximized="1"
     inkscape:current-layer="svg24" />
  <path
     d="M 91.257,125.358 C 65.640001,119.609 46.501001,96.727 46.501001,69.375 c 0,-6.153 0.968,-12.0801 2.761,-17.6366 l -0.195,-0.2384 c 0,0 -23.0178,23.843 -31.5246,52.132 -8.5068003,28.288 -7.5061,60.618 -7.5061,60.618 0,0 16.2137,-23.125 42.7137,-31 13.651,-4.057 27.899,-6.488 38.506999,-7.892 z"
     id="path2"
     inkscape:connector-curvature="0"
     style="clip-rule:evenodd;fill:url(#paint0_linear);fill-rule:evenodd" />
  <circle
     cx="106.375"
     cy="67.375"
     r="57.375"
     id="circle4"
     style="fill:url(#paint1_radial)" />
  <path
     d="m 135.43,92.49 c 0.865,1.199 0.6,2.883 -0.665,3.648 -2.92,1.765 -6.102,3.068 -9.433,3.857 -4.201,0.995 -8.557,1.153 -12.819,0.465 -4.262,-0.688 -8.347,-2.209 -12.021,-4.476 -2.913,-1.798 -5.523,-4.037 -7.739,-6.632 -0.96,-1.124 -0.682,-2.806 0.517,-3.671 1.199,-0.865 2.863,-0.585 3.84,0.524 1.793,2.033 3.879,3.794 6.193,5.222 3.076,1.898 6.496,3.171 10.064,3.748 3.567,0.576 7.214,0.444 10.731,-0.389 2.646,-0.627 5.181,-1.642 7.522,-3.007 1.277,-0.745 2.945,-0.488 3.81,0.711 z"
     id="path6"
     inkscape:connector-curvature="0"
     style="fill:#ffffff" />
  <ellipse
     cx="134.125"
     cy="45.25"
     rx="9.875"
     ry="10"
     id="ellipse8"
     style="fill:#ffffff" />
  <ellipse
     cx="104.875"
     cy="57.25"
     rx="9.875"
     ry="10"
     id="ellipse10"
     style="fill:#ffffff" />
  <defs
     id="defs22">
    <linearGradient
       id="paint0_linear"
       x1="118.5"
       y1="134.25"
       x2="52.375198"
       y2="220.875"
       gradientUnits="userSpaceOnUse"
       gradientTransform="translate(-58.249999,-41)">
      <stop
         stop-color="#1188DD"
         id="stop12" />
      <stop
         offset="1"
         stop-color="white"
         stop-opacity="0"
         id="stop14" />
    </linearGradient>
    <radialGradient
       id="paint1_radial"
       cx="0"
       cy="0"
       r="1"
       gradientUnits="userSpaceOnUse"
       gradientTransform="matrix(-0.12498378,89.625013,-89.625013,-0.12498378,106.5,35.125)">
      <stop
         stop-color="#0F96F8"
         id="stop17" />
      <stop
         offset="1"
         stop-color="#1188DD"
         id="stop19" />
    </radialGradient>
  </defs>
</svg>
