<svg width="63" height="63" viewBox="0 0 63 63" fill="none" xmlns="http://www.w3.org/2000/svg">
<g filter="url(#filter0_d)">
<circle cx="31.5" cy="31.5" r="26" stroke="#B8672D" stroke-width="3"/>
</g>
<circle cx="31.4993" cy="31.5" r="23.7083" stroke="#DF3232" stroke-width="3"/>
<circle cx="32.0967" cy="37.8727" r="9.66895" transform="rotate(90 32.0967 37.8727)" fill="#DF3232"/>
<path opacity="0.15" d="M36.4914 30.2604C32.2873 27.8331 26.9114 29.2736 24.4841 33.4778C24.4841 33.4778 29.8149 29.9581 34.8433 33.115C39.8718 36.272 39.7088 42.2677 39.7088 42.2677C42.1361 38.0635 40.6956 32.6877 36.4914 30.2604Z" fill="white"/>
<path d="M33.8547 15.4584L31.877 19.4139L35.3929 27.1051L40.2274 15.4584H33.8547Z" fill="#B8672D"/>
<path d="M30.3386 15.4584H23.7461L28.8003 27.1051H35.3928L30.3386 15.4584Z" fill="#DF3232"/>
<defs>
<filter id="filter0_d" x="0" y="0" width="63" height="63" filterUnits="userSpaceOnUse" color-interpolation-filters="sRGB">
<feFlood flood-opacity="0" result="BackgroundImageFix"/>
<feColorMatrix in="SourceAlpha" type="matrix" values="0 0 0 0 0 0 0 0 0 0 0 0 0 0 0 0 0 0 127 0"/>
<feOffset/>
<feGaussianBlur stdDeviation="2"/>
<feColorMatrix type="matrix" values="0 0 0 0 0.811765 0 0 0 0 0.490196 0 0 0 0 0.258824 0 0 0 1 0"/>
<feBlend mode="normal" in2="BackgroundImageFix" result="effect1_dropShadow"/>
<feBlend mode="normal" in="SourceGraphic" in2="effect1_dropShadow" result="shape"/>
</filter>
</defs>
</svg>
