<svg width="23" height="26" viewBox="0 0 23 26" xmlns="http://www.w3.org/2000/svg">
    <path d="M22.4792 12.033L1.421 0.114431C1.25595 0.0209968 1.07056 -0.0164403 0.887156 0.00662768C0.703747 0.0296956 0.530139 0.112285 0.387235 0.244451C0.250762 0.373922 0.1489 0.543917 0.0930983 0.735326C0.0372969 0.926735 0.029769 1.13197 0.071361 1.32796L2.90465 12.9973L0.0330733 24.6341C-0.00595481 24.7978 -0.0105106 24.9696 0.0197724 25.1356C0.0500554 25.3016 0.114332 25.4573 0.207435 25.5901C0.300537 25.7229 0.419866 25.8291 0.555829 25.9001C0.691791 25.9712 0.840591 26.0052 0.990266 25.9994C1.14011 25.9983 1.28764 25.9575 1.421 25.8802L22.4792 13.9616C22.636 13.8707 22.7676 13.7326 22.8595 13.5624C22.9514 13.3923 23 13.1967 23 12.9973C23 12.7979 22.9514 12.6023 22.8595 12.4322C22.7676 12.262 22.636 12.1239 22.4792 12.033ZM2.47392 22.868L4.58931 14.0808H13.4338V11.9138H4.58931L2.47392 3.12657L19.9044 12.9973L2.47392 22.868Z"
    />
</svg>
