<svg width="24" height="24" viewBox="0 0 24 24" fill="none" xmlns="http://www.w3.org/2000/svg">
    <circle cx="12" cy="12" r="10.5" stroke="#ECD400" stroke-width="3"/>
    <circle cx="12" cy="12" r="9.5" stroke="#FCE303" stroke-width="3"/>
    <path d="M8.20715 7.45557H12.0553V19.1591H9.1692V18.7905C9.1692 18.7905 11.2857 17.7768 11.2857 16.9474C11.2857 16.118 10.4199 14.92 10.4199 14.92C10.4199 14.92 9.45781 13.6299 8.68818 11.6025C7.91854 9.57511 8.20715 7.45557 8.20715 7.45557Z"
          fill="#ECD400"/>
    <path d="M15.5345 7.45557H11.8696V19.1591H14.6183V18.7905C14.6183 18.7905 12.6025 17.7768 12.6025 16.9474C12.6025 16.118 13.4272 14.92 13.4272 14.92C13.4272 14.92 14.3434 13.6299 15.0764 11.6025C15.8094 9.57511 15.5345 7.45557 15.5345 7.45557Z"
          fill="#ECD400"/>
    <path d="M8.99013 6.34082V7.45545H8.43281V6.89813H6.5751C6.5751 6.89813 6.38933 8.01276 7.13242 10.0562C7.8755 12.0997 9.54744 13.4001 9.54744 13.4001L10.3834 14.8863C10.3834 14.8863 7.96839 13.4001 6.85376 11.2637C5.73914 9.12738 5.73914 6.34082 5.73914 6.34082H8.99013Z"
          fill="#DAC400"/>
    <path d="M14.749 6.34082V7.45545H15.3063V6.89813H17.164C17.164 6.89813 17.3498 8.01276 16.6067 10.0562C15.8636 12.0997 14.1917 13.4001 14.1917 13.4001L13.3557 14.8863C13.3557 14.8863 15.7707 13.4001 16.8854 11.2637C18 9.12738 18 6.34082 18 6.34082H14.749Z"
          fill="#DAC400"/>
    <path opacity="0.3"
          d="M15.0276 7.91992H13.6343C13.6343 7.91992 13.8201 9.03455 13.4486 11.1709C13.077 13.3073 12.5197 15.5365 12.5197 15.5365C12.5197 15.5365 13.913 13.1215 14.4703 11.3567C15.0276 9.59186 15.0276 7.91992 15.0276 7.91992Z"
          fill="white"/>
</svg>
